<svg width="198" height="33" viewBox="0 0 198 33" fill="none" xmlns="http://www.w3.org/2000/svg">
<path d="M0.661133 0.183105H17.353C19.8726 0.183105 22.0562 0.449056 23.9038 0.980957C25.7515 1.49886 27.2842 2.25472 28.502 3.24854C29.7197 4.24235 30.6226 5.45312 31.2104 6.88086C31.8123 8.30859 32.1133 9.92529 32.1133 11.731C32.1133 12.9487 31.9663 14.1105 31.6724 15.2163C31.3784 16.3081 30.9235 17.3159 30.3076 18.2397C29.7057 19.1636 28.9429 19.9894 28.019 20.7173C27.0952 21.4312 26.0104 22.026 24.7646 22.502L31.9033 33H23.7568L17.584 23.6777H17.395L7.31689 23.6567V33H0.661133V0.183105ZM17.521 17.9038C18.7808 17.9038 19.8796 17.7568 20.8174 17.4629C21.7692 17.1689 22.5601 16.756 23.1899 16.2241C23.8338 15.6922 24.3097 15.0483 24.6177 14.2925C24.9396 13.5226 25.1006 12.6688 25.1006 11.731C25.1006 9.8973 24.4707 8.48356 23.2109 7.48975C21.9512 6.48193 20.0545 5.97803 17.521 5.97803H7.31689V17.9038H17.521ZM40.0078 0.183105H67.9536V6.02002H46.6636V12.5708H65.5181V18.0508H46.6636V27.1841H68.3945V33H40.0078V0.183105ZM75.7852 0.183105H93.3169C95.4585 0.183105 97.3201 0.414062 98.9019 0.875977C100.498 1.32389 101.82 1.94678 102.87 2.74463C103.92 3.54248 104.697 4.4943 105.201 5.6001C105.719 6.69189 105.978 7.87467 105.978 9.14844C105.978 11.234 105.32 13.0607 104.004 14.6284C105.516 15.5243 106.642 16.686 107.384 18.1138C108.126 19.5415 108.497 21.1652 108.497 22.9849C108.497 24.5106 108.238 25.8893 107.72 27.1211C107.216 28.3529 106.439 29.4097 105.39 30.2915C104.354 31.1593 103.038 31.8312 101.442 32.3071C99.8607 32.769 97.992 33 95.8364 33H75.7852V0.183105ZM95.8784 12.7808C96.4523 12.7808 97.0122 12.8018 97.5581 12.8438C98.4959 11.9479 98.9648 10.9261 98.9648 9.77832C98.9648 8.58854 98.4959 7.67171 97.5581 7.02783C96.6343 6.36995 95.2765 6.04102 93.4849 6.04102H82.4409V12.7808H95.8784ZM96.0044 27.2051C97.7961 27.2051 99.1538 26.8201 100.078 26.0503C101.015 25.2804 101.484 24.1956 101.484 22.7959C101.484 21.3962 101.015 20.3044 100.078 19.5205C99.1538 18.7367 97.7961 18.3447 96.0044 18.3447H82.4409V27.2051H96.0044ZM114.418 0.183105H121.116V33H114.418V0.183105ZM129.619 0.183105H146.311C148.831 0.183105 151.014 0.449056 152.862 0.980957C154.709 1.49886 156.242 2.25472 157.46 3.24854C158.678 4.24235 159.581 5.45312 160.168 6.88086C160.77 8.30859 161.071 9.92529 161.071 11.731C161.071 12.9487 160.924 14.1105 160.63 15.2163C160.336 16.3081 159.882 17.3159 159.266 18.2397C158.664 19.1636 157.901 19.9894 156.977 20.7173C156.053 21.4312 154.968 22.026 153.723 22.502L160.861 33H152.715L146.542 23.6777H146.353L136.275 23.6567V33H129.619V0.183105ZM146.479 17.9038C147.739 17.9038 148.838 17.7568 149.775 17.4629C150.727 17.1689 151.518 16.756 152.148 16.2241C152.792 15.6922 153.268 15.0483 153.576 14.2925C153.898 13.5226 154.059 12.6688 154.059 11.731C154.059 9.8973 153.429 8.48356 152.169 7.48975C150.909 6.48193 149.013 5.97803 146.479 5.97803H136.275V17.9038H146.479ZM178.855 6.02002H166.74V0.183105H197.625V6.02002H185.511V33H178.855V6.02002Z" fill="url(#paint0_linear_33_8)"/>
<defs>
<linearGradient id="paint0_linear_33_8" x1="-4" y1="17" x2="203" y2="17" gradientUnits="userSpaceOnUse">
<stop stop-color="white"/>
<stop offset="1" stop-color="#E4E4E4"/>
</linearGradient>
</defs>
</svg>
