<svg width="111" height="19" viewBox="0 0 111 19" fill="none" xmlns="http://www.w3.org/2000/svg">
<path d="M0.601562 0.683594H9.91797C11.3242 0.683594 12.543 0.832031 13.5742 1.12891C14.6055 1.41797 15.4609 1.83984 16.1406 2.39453C16.8203 2.94922 17.3242 3.625 17.6523 4.42188C17.9883 5.21875 18.1562 6.12109 18.1562 7.12891C18.1562 7.80859 18.0742 8.45703 17.9102 9.07422C17.7461 9.68359 17.4922 10.2461 17.1484 10.7617C16.8125 11.2773 16.3867 11.7383 15.8711 12.1445C15.3555 12.543 14.75 12.875 14.0547 13.1406L18.0391 19H13.4922L10.0469 13.7969H9.94141L4.31641 13.7852V19H0.601562V0.683594ZM10.0117 10.5742C10.7148 10.5742 11.3281 10.4922 11.8516 10.3281C12.3828 10.1641 12.8242 9.93359 13.1758 9.63672C13.5352 9.33984 13.8008 8.98047 13.9727 8.55859C14.1523 8.12891 14.2422 7.65234 14.2422 7.12891C14.2422 6.10547 13.8906 5.31641 13.1875 4.76172C12.4844 4.19922 11.4258 3.91797 10.0117 3.91797H4.31641V10.5742H10.0117ZM22.5625 0.683594H38.1602V3.94141H26.2773V7.59766H36.8008V10.6562H26.2773V15.7539H38.4062V19H22.5625V0.683594ZM42.5312 0.683594H52.3164C53.5117 0.683594 54.5508 0.8125 55.4336 1.07031C56.3242 1.32031 57.0625 1.66797 57.6484 2.11328C58.2344 2.55859 58.668 3.08984 58.9492 3.70703C59.2383 4.31641 59.3828 4.97656 59.3828 5.6875C59.3828 6.85156 59.0156 7.87109 58.2812 8.74609C59.125 9.24609 59.7539 9.89453 60.168 10.6914C60.582 11.4883 60.7891 12.3945 60.7891 13.4102C60.7891 14.2617 60.6445 15.0312 60.3555 15.7188C60.0742 16.4062 59.6406 16.9961 59.0547 17.4883C58.4766 17.9727 57.7422 18.3477 56.8516 18.6133C55.9688 18.8711 54.9258 19 53.7227 19H42.5312V0.683594ZM53.7461 7.71484C54.0664 7.71484 54.3789 7.72656 54.6836 7.75C55.207 7.25 55.4688 6.67969 55.4688 6.03906C55.4688 5.375 55.207 4.86328 54.6836 4.50391C54.168 4.13672 53.4102 3.95312 52.4102 3.95312H46.2461V7.71484H53.7461ZM53.8164 15.7656C54.8164 15.7656 55.5742 15.5508 56.0898 15.1211C56.6133 14.6914 56.875 14.0859 56.875 13.3047C56.875 12.5234 56.6133 11.9141 56.0898 11.4766C55.5742 11.0391 54.8164 10.8203 53.8164 10.8203H46.2461V15.7656H53.8164ZM64.0938 0.683594H67.832V19H64.0938V0.683594ZM72.5781 0.683594H81.8945C83.3008 0.683594 84.5195 0.832031 85.5508 1.12891C86.582 1.41797 87.4375 1.83984 88.1172 2.39453C88.7969 2.94922 89.3008 3.625 89.6289 4.42188C89.9648 5.21875 90.1328 6.12109 90.1328 7.12891C90.1328 7.80859 90.0508 8.45703 89.8867 9.07422C89.7227 9.68359 89.4688 10.2461 89.125 10.7617C88.7891 11.2773 88.3633 11.7383 87.8477 12.1445C87.332 12.543 86.7266 12.875 86.0312 13.1406L90.0156 19H85.4688L82.0234 13.7969H81.918L76.293 13.7852V19H72.5781V0.683594ZM81.9883 10.5742C82.6914 10.5742 83.3047 10.4922 83.8281 10.3281C84.3594 10.1641 84.8008 9.93359 85.1523 9.63672C85.5117 9.33984 85.7773 8.98047 85.9492 8.55859C86.1289 8.12891 86.2188 7.65234 86.2188 7.12891C86.2188 6.10547 85.8672 5.31641 85.1641 4.76172C84.4609 4.19922 83.4023 3.91797 81.9883 3.91797H76.293V10.5742H81.9883ZM100.059 3.94141H93.2969V0.683594H110.535V3.94141H103.773V19H100.059V3.94141Z" fill="url(#paint0_linear_33_8)"/>
<defs>
<linearGradient id="paint0_linear_33_8" x1="-2" y1="9.5" x2="118" y2="9.5" gradientUnits="userSpaceOnUse">
<stop stop-color="white"/>
<stop offset="1" stop-color="#E4E4E4"/>
</linearGradient>
</defs>
</svg>
