<svg width="339" height="96" viewBox="0 0 339 96" fill="none" xmlns="http://www.w3.org/2000/svg">
<rect width="96" height="96" rx="12" fill="url(#paint0_linear_33_9)"/>
<path d="M27.2871 25.7354H49.8018C53.2002 25.7354 56.1455 26.0941 58.6377 26.8115C61.1299 27.5101 63.1973 28.5296 64.8398 29.8701C66.4824 31.2106 67.7002 32.8438 68.4932 34.7695C69.305 36.6953 69.7109 38.876 69.7109 41.3115C69.7109 42.9541 69.5127 44.5212 69.1162 46.0127C68.7197 47.4854 68.1061 48.8447 67.2754 50.0908C66.4635 51.3369 65.4346 52.4508 64.1885 53.4326C62.9424 54.3955 61.4792 55.1979 59.7988 55.8398L69.4277 70H58.4395L50.1133 57.4258H49.8584L36.2646 57.3975V70H27.2871V25.7354ZM50.0283 49.6377C51.7275 49.6377 53.2096 49.4395 54.4746 49.043C55.7585 48.6465 56.8252 48.0895 57.6748 47.3721C58.5433 46.6546 59.1852 45.7861 59.6006 44.7666C60.0348 43.7282 60.252 42.5765 60.252 41.3115C60.252 38.8382 59.4023 36.9313 57.7031 35.5908C56.0039 34.2314 53.4456 33.5518 50.0283 33.5518H36.2646V49.6377H50.0283Z" fill="url(#paint1_linear_33_9)"/>
<path d="M108.287 26.7354H145.981V34.6084H117.265V43.4443H142.696V50.8359H117.265V63.1553H146.576V71H108.287V26.7354ZM156.545 26.7354H180.192C183.081 26.7354 185.592 27.0469 187.726 27.6699C189.878 28.2741 191.662 29.1143 193.078 30.1904C194.494 31.2666 195.542 32.5505 196.222 34.042C196.92 35.5146 197.27 37.11 197.27 38.8281C197.27 41.6413 196.382 44.1051 194.607 46.2197C196.646 47.4281 198.166 48.9951 199.167 50.9209C200.168 52.8467 200.668 55.0368 200.668 57.4912C200.668 59.5492 200.319 61.4089 199.62 63.0703C198.94 64.7318 197.893 66.1572 196.477 67.3467C195.079 68.5173 193.305 69.4235 191.152 70.0654C189.019 70.6885 186.498 71 183.591 71H156.545V26.7354ZM183.647 43.7275C184.422 43.7275 185.177 43.7559 185.913 43.8125C187.178 42.6042 187.811 41.2259 187.811 39.6777C187.811 38.0729 187.178 36.8363 185.913 35.9678C184.667 35.0804 182.836 34.6367 180.419 34.6367H165.522V43.7275H183.647ZM183.817 63.1836C186.234 63.1836 188.065 62.6644 189.312 61.626C190.576 60.5876 191.209 59.1243 191.209 57.2363C191.209 55.3483 190.576 53.8757 189.312 52.8184C188.065 51.7611 186.234 51.2324 183.817 51.2324H165.522V63.1836H183.817ZM208.654 26.7354H217.688V71H208.654V26.7354ZM229.158 26.7354H251.673C255.071 26.7354 258.017 27.0941 260.509 27.8115C263.001 28.5101 265.068 29.5296 266.711 30.8701C268.354 32.2106 269.571 33.8438 270.364 35.7695C271.176 37.6953 271.582 39.876 271.582 42.3115C271.582 43.9541 271.384 45.5212 270.987 47.0127C270.591 48.4854 269.977 49.8447 269.146 51.0908C268.335 52.3369 267.306 53.4508 266.06 54.4326C264.813 55.3955 263.35 56.1979 261.67 56.8398L271.299 71H260.311L251.984 58.4258H251.729L238.136 58.3975V71H229.158V26.7354ZM251.899 50.6377C253.599 50.6377 255.081 50.4395 256.346 50.043C257.63 49.6465 258.696 49.0895 259.546 48.3721C260.414 47.6546 261.056 46.7861 261.472 45.7666C261.906 44.7282 262.123 43.5765 262.123 42.3115C262.123 39.8382 261.273 37.9313 259.574 36.5908C257.875 35.2314 255.317 34.5518 251.899 34.5518H238.136V50.6377H251.899ZM295.569 34.6084H279.229V26.7354H320.888V34.6084H304.547V71H295.569V34.6084Z" fill="url(#paint2_linear_33_9)"/>
<defs>
<linearGradient id="paint0_linear_33_9" x1="48" y1="0" x2="48" y2="96" gradientUnits="userSpaceOnUse">
<stop stop-color="#001152"/>
<stop offset="1"/>
</linearGradient>
<linearGradient id="paint1_linear_33_9" x1="54.5" y1="12" x2="54.5" y2="75" gradientUnits="userSpaceOnUse">
<stop offset="0.45" stop-color="white"/>
<stop offset="1" stop-color="#999999"/>
</linearGradient>
<linearGradient id="paint2_linear_33_9" x1="102" y1="44.5" x2="339" y2="44.5" gradientUnits="userSpaceOnUse">
<stop stop-color="white"/>
<stop offset="1" stop-color="#E4E4E4"/>
</linearGradient>
</defs>
</svg>
